<svg width="164" height="21" viewBox="0 0 164 21" fill="none" xmlns="http://www.w3.org/2000/svg">
<path fill-rule="evenodd" clip-rule="evenodd" d="M58.859 10.5C58.859 4.66656 61.813 0 67.14 0C72.468 0 75.421 4.66656 75.421 10.5C75.421 16.3344 72.467 21 67.141 21C61.813 21 58.859 16.3344 58.859 10.5ZM67.14 18.0877C69.212 18.0877 70.094 14.5871 70.094 10.5079C70.094 6.42679 69.205 2.92811 67.14 2.92811C65.075 2.92811 64.186 6.42778 64.186 10.5079C64.179 14.5871 65.068 18.0877 67.14 18.0877ZM3.843 0.29717V5.84038H4.137L7.98 0.29717H13.3L6.202 6.71009L6.496 7.00033L19.51 0.290236V4.95679L7.973 9.03693V9.32618L19.51 8.30788V12.6852L7.973 11.6669V11.9571L19.51 16.0363V20.7038L6.496 13.9927L6.202 14.283L13.3 20.6959H7.98L4.137 15.1527H3.843V20.6959H0V0.283302H3.843V0.29717ZM23.073 0.29717H28.1L27.806 12.5435H28.1L34.015 0.29717H38.453V20.7108H33.427L33.721 8.4634H33.427L27.51 20.7117H23.072V0.29717H23.073ZM47.028 0.29717H42.002V20.7108H47.028V11.6669H51.165V20.7108H56.191V0.29717H51.165V8.17415H47.028V0.29717ZM92.278 0.29717H78.088V20.7108H83.115V3.79684H87.252V20.7108H92.278V0.29717ZM94.938 10.5C94.938 4.66656 97.892 0 103.22 0C108.54 0 111.501 4.66656 111.501 10.5C111.501 16.3344 108.547 21 103.22 21C97.9 21 94.938 16.3344 94.938 10.5ZM103.22 18.0877C105.292 18.0877 106.174 14.5871 106.174 10.5079C106.174 6.42679 105.285 2.92811 103.22 2.92811C101.148 2.92811 100.266 6.42778 100.266 10.5079C100.266 14.5871 101.148 18.0877 103.22 18.0877ZM119.187 0.29717H114.161V20.7108H118.599L124.515 8.4634H124.809L124.515 20.7108H129.541V0.29717H125.103L119.187 12.5435H118.893L119.187 0.29717ZM142.856 13.7104L147.588 14.2899C146.699 18.371 144.634 21 140.224 21C134.904 21 132.208 16.3344 132.208 10.5C132.208 4.66656 134.897 0 140.224 0C144.541 0 146.699 2.62401 147.588 6.41391L142.856 7.57981C142.562 5.53627 141.701 2.91425 140.224 2.91425C138.453 2.91425 137.535 6.41392 137.535 10.4931C137.535 14.5445 138.453 18.0729 140.224 18.0729C141.673 18.0877 142.554 15.754 142.856 13.7104ZM154.686 0.29816H149.954V20.7108H154.686V11.6669H154.98L158.529 20.7108H164L158.823 10.2108L163.849 0.29717H158.823L154.98 9.34104H154.686V0.29717V0.29816Z" fill="white"/>
</svg>
